HIERARCHY
ROOT Hips
{
	OFFSET 0.00 0.00 0.00
	CHANNELS 6 Xposition Yposition Zposition Xrotation Yrotation Zrotation
	JOINT Spine
	{
		OFFSET 0.00000 5.89385 0.00000
		CHANNELS 3 Xrotation Yrotation Zrotation
		JOINT Head
		{
			OFFSET 0.00000 16.44715 0.00000
			CHANNELS 3 Xrotation Yrotation Zrotation
			End Site
			{
				OFFSET 0.00000 4.52755 0.00000
			}
		}
		JOINT LeftShoulder
		{
			OFFSET 0.00000 10.90038 0.00000
			CHANNELS 3 Xrotation Yrotation Zrotation
			JOINT LeftArm
			{
				OFFSET 8.21946 0.00000 0.00000
				CHANNELS 3 Xrotation Yrotation Zrotation
				JOINT LeftForeArm
				{
					OFFSET 11.09494 0.00000 0.00000
					CHANNELS 3 Yrotation Zrotation Xrotation
					JOINT LeftHand
					{
						OFFSET 9.10388 0.00000 0.00000
						CHANNELS 3 Xrotation Yrotation Zrotation
						JOINT LeftHandThumb1
						{
							OFFSET 0.00000 0.00000 0.00000
							CHANNELS 3 Xrotation Zrotation Yrotation
							End Site
							{
								OFFSET 0.00000 0.00000 3.93700
							}
						}
						End Site
						{
							OFFSET 3.93700 0.00000 0.00000
						}
					}
				}
			}
		}
		JOINT RightShoulder
		{
			OFFSET 0.00000 10.90038 0.00000
			CHANNELS 3 Xrotation Yrotation Zrotation
			JOINT RightArm
			{
				OFFSET -8.21946 0.00000 0.00000
				CHANNELS 3 Xrotation Yrotation Zrotation
				JOINT RightForeArm
				{
					OFFSET -11.09494 0.00000 0.00000
					CHANNELS 3 Yrotation Zrotation Xrotation
					JOINT RightHand
					{
						OFFSET -9.10388 0.00000 0.00000
						CHANNELS 3 Xrotation Yrotation Zrotation
						JOINT RightHandThumb1
						{
							OFFSET 0.00000 0.00000 0.00000
							CHANNELS 3 Xrotation Zrotation Yrotation
							End Site
							{
								OFFSET 0.00000 0.00000 3.93700
							}
						}
						End Site
						{
							OFFSET -3.93700 0.00000 0.00000
						}
					}
				}
			}
		}
	}
	JOINT LeftUpLeg
	{
		OFFSET 3.69794 0.00000 0.00000
		CHANNELS 3 Xrotation Yrotation Zrotation
		JOINT LeftLeg
		{
			OFFSET 0.00000 -16.18147 0.00000
			CHANNELS 3 Xrotation Yrotation Zrotation
			JOINT LeftFoot
			{
				OFFSET 0.00000 -16.50139 0.00000
				CHANNELS 3 Xrotation Yrotation Zrotation
				JOINT LeftToeBase
				{
					OFFSET 0.00000 -1.65857 6.18989
					CHANNELS 3 Xrotation Yrotation Zrotation
					End Site
					{
						OFFSET 0.00000 0.00000 2.95275
					}
				}
			}
		}
	}
	JOINT RightUpLeg
	{
		OFFSET -3.69794 0.00000 0.00000
		CHANNELS 3 Xrotation Yrotation Zrotation
		JOINT RightLeg
		{
			OFFSET 0.00000 -16.18147 0.00000
			CHANNELS 3 Xrotation Yrotation Zrotation
			JOINT RightFoot
			{
				OFFSET 0.00000 -16.50139 0.00000
				CHANNELS 3 Xrotation Yrotation Zrotation
				JOINT RightToeBase
				{
					OFFSET 0.00000 -1.65857 6.18989
					CHANNELS 3 Xrotation Yrotation Zrotation
					End Site
					{
						OFFSET 0.00000 0.00000 2.95275
					}
				}
			}
		}
	}
}
MOTION
Frames: 21
Frame Time: 0.008333
 2.0607 35.9264 2.1789 -110.0969 -83.1306 -109.0145 12.9083 1.5737 -3.3223 -1.6850 3.3894 1.9478 4.2945 8.8450 28.7865 -39.5266 12.8957 -29.7270 -2.5854 0.0000 18.3779 2.7199 12.3491 -12.5238 33.1476 -0.0000 26.2537 32.0901 -30.4665 -12.9939 -69.2105 3.6599 31.0421 -2.8503 -0.0000 -7.1446 0.0937 -0.9485 5.6426 32.8623 0.0000 -24.3270 10.3765 15.3404 4.6484 6.3762 0.0000 0.0000 -10.5851 8.9854 -8.7948 9.0228 -0.0000 -0.0000 9.7525 -7.0611 -8.4514 3.1189 -0.0000 -0.0000 -10.0057 -6.2200 17.4399 14.5092 -0.0000 -0.0000
 2.0602 35.9267 2.1848 -109.9407 -83.1344 -108.8418 12.9043 1.6027 -3.3176 -1.6797 3.3809 1.9188 4.3317 8.8519 28.7228 -39.3135 12.8708 -29.9227 -2.8753 0.0000 18.0945 2.6934 12.4504 -12.3090 33.1476 -0.0000 26.2537 32.0785 -30.4441 -12.9868 -69.2281 3.6376 31.0560 -2.8349 -0.0000 -7.1288 0.0924 -0.9415 5.6039 32.8623 0.0000 -24.3270 10.3785 15.3549 4.6281 6.3783 -0.0000 -0.0000 -10.5767 8.9452 -8.8063 8.9951 -0.0000 0.0000 9.7536 -7.0730 -8.4747 3.1238 0.0000 0.0000 -10.0170 -6.2212 17.3945 14.5122 0.0000 -0.0000
 2.0600 35.9269 2.1909 -109.7005 -83.1424 -108.5819 12.9076 1.6249 -3.3147 -1.7051 3.3666 1.8937 4.3599 8.8788 28.6590 -39.0669 12.7883 -30.1613 -3.1438 0.0000 17.6538 2.6663 12.5302 -12.1150 33.1476 -0.0000 26.2537 32.2375 -30.4245 -12.9301 -69.3440 3.5365 31.0424 -2.7664 -0.0000 -7.1297 0.0880 -0.8899 5.6476 32.8623 0.0000 -24.3270 10.3808 15.3419 4.6047 6.3801 0.0000 -0.0000 -10.5719 8.9207 -8.8259 9.0017 -0.0000 0.0000 9.7504 -7.1037 -8.4992 3.1330 -0.0000 -0.0000 -10.0124 -6.2317 17.4066 14.4863 -0.0000 0.0000
 2.0602 35.9266 2.1972 -109.4876 -83.1500 -108.3503 12.9056 1.6366 -3.3045 -1.7216 3.3810 1.8622 4.4124 8.9241 28.5705 -38.9309 12.7996 -30.3974 -3.5201 0.0000 17.3563 2.6282 12.5402 -11.9371 33.1476 -0.0000 26.2537 32.2016 -30.3925 -12.9424 -69.3062 3.5471 31.0567 -2.7480 -0.0000 -7.1219 0.0939 -0.9584 5.5981 32.8623 0.0000 -24.3270 10.3825 15.3410 4.5823 6.3778 0.0000 -0.0000 -10.5632 8.8851 -8.8302 8.9787 -0.0000 -0.0000 9.7537 -7.1141 -8.5253 3.1343 0.0000 -0.0000 -10.0193 -6.2605 17.4343 14.4662 0.0000 -0.0000
 2.0603 35.9268 2.2042 -109.1849 -83.1634 -108.0295 12.9028 1.6514 -3.2893 -1.7482 3.3777 1.8373 4.4722 8.9944 28.4375 -38.8079 12.7232 -30.6521 -3.9203 0.0000 17.0212 2.6402 12.7534 -11.7985 33.1476 -0.0000 26.2537 32.2168 -30.3585 -12.9137 -69.3048 3.5622 31.0388 -2.7386 -0.0000 -7.1568 0.0954 -0.9628 5.6562 32.8623 0.0000 -24.3270 10.3844 15.3117 4.5577 6.3739 -0.0000 -0.0000 -10.5616 8.8730 -8.8400 8.9634 -0.0000 0.0000 9.7574 -7.1302 -8.5490 3.1341 0.0000 -0.0000 -10.0218 -6.2826 17.4227 14.5044 0.0000 0.0000
 2.0608 35.9266 2.2116 -108.9140 -83.1722 -107.7350 12.9031 1.6744 -3.2762 -1.7717 3.3838 1.7968 4.5375 9.0553 28.3107 -38.7353 12.7267 -30.9459 -4.3914 0.0000 16.7391 2.6003 12.8147 -11.5716 33.1476 -0.0000 26.2537 32.2089 -30.3226 -12.9165 -69.2816 3.5568 31.0363 -2.7305 -0.0000 -7.1563 0.0914 -0.9241 5.6474 32.8623 0.0000 -24.3270 10.3847 15.2949 4.5275 6.3808 -0.0000 -0.0000 -10.5621 8.8525 -8.8331 8.9820 0.0000 -0.0000 9.7592 -7.1526 -8.5808 3.1355 0.0000 -0.0000 -10.0242 -6.2918 17.4218 14.4698 -0.0000 0.0000
 2.0609 35.9268 2.2199 -108.6237 -83.1863 -107.4212 12.8896 1.7061 -3.2667 -1.7808 3.3832 1.7909 4.6287 9.1477 28.1817 -38.5395 12.5595 -31.3134 -4.8268 0.0000 16.4699 2.6301 13.0082 -11.5345 33.1476 -0.0000 26.2537 32.2484 -30.2714 -12.8841 -69.2870 3.5499 31.0025 -2.7216 -0.0000 -7.1486 0.0960 -0.9792 5.5982 32.8623 0.0000 -24.3270 10.3856 15.2802 4.4972 6.3752 0.0000 0.0000 -10.5586 8.8193 -8.8378 8.9938 -0.0000 0.0000 9.7550 -7.1941 -8.6146 3.1366 0.0000 -0.0000 -10.0284 -6.2948 17.4471 14.4963 0.0000 -0.0000
 2.0623 35.9264 2.2292 -108.2597 -83.2037 -107.0356 12.8825 1.7260 -3.2371 -1.8060 3.3851 1.7469 4.7012 9.2220 28.0177 -38.3984 12.4705 -31.6748 -5.3487 0.0000 16.4066 2.6183 13.0722 -11.4303 33.1476 -0.0000 26.2537 32.2448 -30.2349 -12.8958 -69.2598 3.5475 30.9970 -2.7140 -0.0000 -7.1700 0.0971 -0.9875 5.6148 32.8623 0.0000 -24.3270 10.3747 15.2583 4.4674 6.3816 0.0000 -0.0000 -10.5689 8.8054 -8.8544 9.0255 -0.0000 0.0000 9.7432 -7.2500 -8.6479 3.1469 0.0000 -0.0000 -10.0263 -6.2914 17.4610 14.4385 -0.0000 0.0000
 2.0625 35.9253 2.2374 -107.8430 -83.2172 -106.5869 12.8832 1.7568 -3.2156 -1.8389 3.3635 1.6814 4.7674 9.2476 27.8548 -38.3092 12.4781 -32.0406 -5.9342 0.0000 16.5123 2.5340 12.9330 -11.1851 33.1476 -0.0000 26.2537 32.2561 -30.2243 -12.9035 -69.2511 3.5330 31.0183 -2.7134 -0.0000 -7.1766 0.0925 -0.9560 5.5281 32.8623 0.0000 -24.3270 10.3786 15.2209 4.4312 6.3829 -0.0000 0.0000 -10.5647 8.7760 -8.8587 8.9987 0.0000 -0.0000 9.7494 -7.3004 -8.6849 3.1408 0.0000 -0.0000 -10.0406 -6.3103 17.4492 14.4862 0.0000 -0.0000
 2.0628 35.9245 2.2468 -107.3230 -83.2314 -106.0369 12.8863 1.7847 -3.1897 -1.8754 3.3327 1.6280 4.8581 9.3039 27.6532 -38.0524 12.2698 -32.4633 -6.5522 0.0000 16.5678 2.5332 13.0946 -11.0492 33.1476 -0.0000 26.2537 32.2624 -30.2084 -12.9044 -69.2746 3.5092 31.0390 -2.7283 -0.0000 -7.1283 0.0893 -0.9341 5.4640 32.8623 0.0000 -24.3270 10.3800 15.1841 4.3959 6.3867 -0.0000 0.0000 -10.5695 8.7336 -8.8452 9.0024 0.0000 -0.0000 9.7549 -7.3740 -8.7249 3.1377 -0.0000 -0.0000 -10.0428 -6.3077 17.4886 14.4596 -0.0000 0.0000
 2.0630 35.9237 2.2555 -106.8954 -83.2352 -105.5820 12.8897 1.8365 -3.1648 -1.8969 3.2977 1.5942 4.9649 9.3504 27.5000 -37.7045 12.0287 -32.9801 -7.1986 0.0000 16.7759 2.5497 13.1138 -11.1041 33.1476 -0.0000 26.2537 32.2932 -30.2050 -12.9056 -69.2595 3.5108 31.0792 -2.7373 -0.0000 -7.1069 0.0890 -0.9373 5.4232 32.8623 0.0000 -24.3270 10.3875 15.1722 4.3647 6.3903 -0.0000 0.0000 -10.5715 8.6930 -8.8454 8.9953 0.0000 -0.0000 9.7638 -7.4431 -8.7623 3.1379 -0.0000 0.0000 -10.0540 -6.2957 17.5046 14.4625 0.0000 -0.0000
 2.0638 35.9230 2.2643 -106.3432 -83.2407 -105.0046 12.8932 1.8564 -3.1355 -1.9169 3.2787 1.5614 5.0919 9.4085 27.3479 -37.1709 11.7010 -33.5285 -7.9146 0.0000 16.9671 2.5954 13.1021 -11.3079 33.1476 -0.0000 26.2537 32.3232 -30.1848 -12.9089 -69.2225 3.5529 31.1207 -2.7574 -0.0000 -7.1596 0.0901 -0.9497 5.4222 32.8623 0.0000 -24.3270 10.3943 15.1291 4.3352 6.3936 0.0000 -0.0000 -10.5730 8.6665 -8.8644 9.0046 0.0000 -0.0000 9.7833 -7.5073 -8.7936 3.1275 0.0000 -0.0000 -10.0555 -6.2977 17.4909 14.4336 0.0000 -0.0000
 2.0647 35.9217 2.2738 -105.7584 -83.2439 -104.3800 12.9059 1.8467 -3.1054 -1.9571 3.2643 1.4837 5.2090 9.4210 27.1744 -36.6140 11.3959 -34.0603 -8.5830 0.0000 17.2260 2.5430 13.0125 -11.1581 33.1476 -0.0000 26.2537 32.3006 -30.1807 -12.9702 -69.2153 3.5609 31.2206 -2.7601 -0.0000 -7.1522 0.0893 -0.9593 5.3158 32.8623 0.0000 -24.3270 10.4093 15.0852 4.2905 6.3967 -0.0000 0.0000 -10.5725 8.6285 -8.8546 9.0018 -0.0000 -0.0000 9.8039 -7.5629 -8.8396 3.1240 -0.0000 -0.0000 -10.0741 -6.3329 17.5196 14.4490 0.0000 -0.0000
 2.0667 35.9212 2.2833 -105.0390 -83.2500 -103.6271 12.9194 1.8399 -3.0775 -1.9951 3.2653 1.4391 5.3972 9.4830 27.0082 -36.0512 11.0969 -34.6453 -9.5433 0.0000 17.4643 2.6244 13.0727 -11.4558 33.1476 -0.0000 26.2537 32.3024 -30.1581 -12.9931 -69.2570 3.5397 31.2907 -2.7356 -0.0000 -7.1399 0.0924 -0.9737 5.4184 32.8623 0.0000 -24.3270 10.4120 15.0199 4.2554 6.4069 0.0000 -0.0000 -10.5765 8.6091 -8.8957 9.0245 -0.0000 -0.0000 9.8267 -7.6339 -8.8781 3.1140 -0.0000 -0.0000 -10.0756 -6.3445 17.5107 14.4604 0.0000 0.0000
 2.0693 35.9213 2.2923 -104.3140 -83.2526 -102.8629 12.9438 1.8231 -3.0557 -2.0322 3.2706 1.3665 5.6275 9.5454 26.8005 -35.6390 10.8415 -35.1445 -10.4472 0.0000 17.9145 2.7130 12.8876 -11.9947 33.1476 -0.0000 26.2537 32.1733 -30.1378 -13.0848 -69.2171 3.5360 31.4115 -2.7264 -0.0000 -7.0639 0.0976 -1.0188 5.4724 32.8623 0.0000 -24.3270 10.4216 14.9515 4.2154 6.4102 0.0000 0.0000 -10.5666 8.5830 -8.9115 9.0300 -0.0000 0.0000 9.8495 -7.6866 -8.9186 3.1130 -0.0000 0.0000 -10.0866 -6.3915 17.5040 14.4718 0.0000 0.0000
 2.0721 35.9211 2.3017 -103.5667 -83.2508 -102.0734 12.9730 1.7831 -3.0415 -2.0895 3.2882 1.3202 5.8816 9.6332 26.5677 -35.2999 10.5312 -35.6379 -11.2456 0.0000 18.2773 2.7470 12.8094 -12.2113 33.1476 -0.0000 26.2537 32.2646 -30.1018 -13.0497 -69.2975 3.5880 31.4717 -2.7081 -0.0000 -7.1104 0.1007 -1.0238 5.6173 32.8623 0.0000 -24.3270 10.4281 14.8926 4.1720 6.4267 0.0000 0.0000 -10.5611 8.5409 -8.9097 9.0260 0.0000 -0.0000 9.8674 -7.7470 -8.9670 3.1273 -0.0000 -0.0000 -10.1006 -6.4234 17.5121 14.4196 -0.0000 0.0000
 2.0767 35.9210 2.3113 -102.8221 -83.2578 -101.2898 12.9931 1.7521 -3.0203 -2.1434 3.2594 1.2597 6.1159 9.7197 26.3246 -35.1544 10.3466 -36.1075 -12.1045 0.0000 18.7604 2.8250 12.6819 -12.6677 33.1476 -0.0000 26.2537 32.3926 -30.0931 -12.9985 -69.4140 3.6499 31.5492 -2.6997 -0.0000 -7.1038 0.0968 -0.9616 5.7504 32.8623 0.0000 -24.3270 10.4147 14.8384 4.1336 6.4558 -0.0000 -0.0000 -10.5575 8.4962 -8.8994 9.0142 -0.0000 0.0000 9.8718 -7.7996 -9.0106 3.1456 -0.0000 0.0000 -10.1151 -6.4703 17.5166 14.4307 -0.0000 0.0000
 2.0812 35.9208 2.3200 -102.1442 -83.2605 -100.5673 13.0071 1.7349 -3.0177 -2.1678 3.2136 1.2246 6.3242 9.7999 26.1009 -35.0828 10.1923 -36.5867 -12.8922 0.0000 19.2008 2.8670 12.4245 -13.1031 33.1476 -0.0000 26.2537 32.3361 -30.0660 -13.0399 -69.3659 3.7275 31.6670 -2.7040 -0.0000 -7.0705 0.0956 -0.9391 5.8154 32.8623 0.0000 -24.3270 10.4071 14.7877 4.0912 6.4795 -0.0000 0.0000 -10.5546 8.4498 -8.9011 9.0210 0.0000 0.0000 9.8710 -7.8477 -9.0589 3.1749 0.0000 -0.0000 -10.1462 -6.5129 17.5210 14.4714 -0.0000 0.0000
 2.0853 35.9207 2.3285 -101.5153 -83.2668 -99.8934 13.0133 1.7096 -3.0205 -2.2012 3.1711 1.1987 6.5051 9.9046 25.9047 -35.0702 10.0557 -37.1007 -13.5681 0.0000 19.6199 2.8337 12.0898 -13.2966 33.1476 -0.0000 26.2537 32.3897 -30.0411 -13.0498 -69.3419 3.8291 31.7750 -2.7093 -0.0000 -7.0832 0.1023 -0.9772 5.9779 32.8623 0.0000 -24.3270 10.3970 14.7427 4.0487 6.4964 -0.0000 -0.0000 -10.5446 8.4045 -8.9189 9.0268 0.0000 -0.0000 9.8732 -7.8835 -9.1106 3.1892 -0.0000 -0.0000 -10.1541 -6.5409 17.5075 14.4038 -0.0000 0.0000
 2.0899 35.9203 2.3366 -101.0275 -83.2720 -99.3597 13.0197 1.6884 -3.0284 -2.2497 3.1139 1.1726 6.6065 9.9687 25.7371 -34.9731 9.8972 -37.5918 -14.0862 0.0000 19.6737 2.8135 11.7214 -13.5991 33.1476 -0.0000 26.2537 32.4405 -30.0041 -13.0809 -69.2441 3.9724 31.8909 -2.7460 -0.0000 -7.0907 0.0979 -0.9256 6.0396 32.8623 0.0000 -24.3270 10.3871 14.7116 4.0037 6.5152 0.0000 0.0000 -10.5344 8.3649 -8.9363 9.0169 -0.0000 0.0000 9.8602 -7.9234 -9.1642 3.2173 0.0000 -0.0000 -10.1834 -6.5667 17.5215 14.4242 0.0000 0.0000
 2.0950 35.9196 2.3423 -100.5854 -83.2805 -98.8795 13.0236 1.6645 -3.0404 -2.3021 3.0458 1.1589 6.6712 10.0249 25.5934 -34.7896 9.6403 -38.0666 -14.4368 0.0000 19.5326 2.7805 11.2904 -13.9322 33.1476 -0.0000 26.2537 32.5078 -29.9636 -13.1046 -69.1874 4.0817 31.9959 -2.7502 -0.0000 -7.0601 0.0989 -0.9029 6.2502 32.8623 0.0000 -24.3270 10.3633 14.7004 3.9724 6.5447 -0.0000 -0.0000 -10.5316 8.3079 -8.9677 9.0149 -0.0000 0.0000 9.8440 -7.9502 -9.2080 3.2447 0.0000 -0.0000 -10.2124 -6.6024 17.5407 14.4663 -0.0000 0.0000
